<svg preserveAspectRatio="none" width="100%" height="100%" overflow="visible" style="display: block;" viewBox="0 0 42 32" fill="none" xmlns="http://www.w3.org/2000/svg">
<g id="HOLON 1" clip-path="url(#clip0_0_52)">
<path id="Vector" d="M3.72881 25.6652H1.80867V26.4503H3.72881V25.6652Z" fill="var(--fill-0, white)"/>
<path id="Vector_2" d="M3.72881 24.0961H1.80867V24.8812H3.72881V24.0961Z" fill="var(--fill-0, white)"/>
<path id="Vector_3" d="M3.72881 22.5266H1.80867V23.3118H3.72881V22.5266Z" fill="var(--fill-0, white)"/>
<path id="Vector_4" d="M3.72881 27.2353H1.80867V28.0194H3.72881V27.2353Z" fill="var(--fill-0, white)"/>
<path id="Vector_5" d="M8.62211 17.127L7.50634 23.2686H10.0279L8.9122 17.127H8.62211Z" fill="var(--fill-0, white)"/>
<path id="Vector_6" d="M15.6278 20.4603C15.6278 21.0884 16.1294 21.5985 16.7447 21.5985C17.3599 21.5985 17.8604 21.0884 17.8604 20.4603V19.3231H16.7447C16.1283 19.3231 15.6278 19.8332 15.6278 20.4603Z" fill="var(--fill-0, white)"/>
<path id="Vector_7" d="M3.72881 14.6783H1.80867V15.4634H3.72881V14.6783Z" fill="var(--fill-0, white)"/>
<path id="Vector_8" d="M3.72881 13.1091H1.80867V13.8942H3.72881V13.1091Z" fill="var(--fill-0, white)"/>
<path id="Vector_9" d="M3.72881 19.387H1.80867V20.1721H3.72881V19.387Z" fill="var(--fill-0, white)"/>
<path id="Vector_10" d="M3.72881 20.9574H1.80867V21.7425H3.72881V20.9574Z" fill="var(--fill-0, white)"/>
<path id="Vector_11" d="M3.72881 16.2487H1.80867V17.0339H3.72881V16.2487Z" fill="var(--fill-0, white)"/>
<path id="Vector_12" d="M3.72881 17.8178H1.80867V18.6029H3.72881V17.8178Z" fill="var(--fill-0, white)"/>
<path id="Vector_13" d="M39.3581 14.4314C39.3581 14.4314 36.9619 12.4485 36.6963 12.2665C35.7463 11.6167 34.6082 11.2377 33.3841 11.2377C31.9655 11.2377 30.6606 11.7478 29.6363 12.5958L26.5058 10.4948V7.69633L23.3679 5.56505H21.9738C19.245 5.56505 17.0252 7.82741 17.0252 10.6085V15.418H16.7458C15.4802 15.418 14.3251 15.9054 13.4495 16.7035L12.864 13.6289L9.72614 11.4965H7.81237L7.51058 13.0799L5.18133 11.4965H0.357095V29.6332L3.43867 31.3931H7.74223V27.5019H41.9511V19.4359C41.9511 17.3609 40.9223 15.5263 39.3581 14.4314ZM4.3419 28.7798H1.19337V12.3488H4.3419V28.7798ZM8.45101 12.2882H9.08325L9.46366 14.2885H8.06955L8.44995 12.2882H8.45101ZM6.13983 24.4165L7.92075 15.0725H9.61457L11.3955 24.4165H6.14089H6.13983ZM22.5295 9.46917H21.9738C21.3575 9.46917 20.857 9.97926 20.857 10.6074V20.4615C20.857 22.7737 19.0123 24.6537 16.7447 24.6537C14.4771 24.6537 12.6324 22.7737 12.6324 20.4615C12.6324 18.1493 14.4771 16.2714 16.7447 16.2714H17.0911V17.4053H16.7447C15.0913 17.4053 13.7449 18.7764 13.7449 20.4615C13.7449 22.1466 15.0913 23.5187 16.7447 23.5187C18.3981 23.5187 19.7434 22.1477 19.7434 20.4615V10.6074C19.7434 9.35439 20.7433 8.33529 21.9738 8.33529H22.5295V9.46917ZM22.5295 7.55013H21.9738C20.3193 7.55013 18.974 8.92118 18.974 10.6063V20.4604C18.974 21.7145 17.9741 22.7335 16.7447 22.7335C15.5152 22.7335 14.5153 21.7145 14.5153 20.4604C14.5153 19.2063 15.5152 18.1883 16.7447 18.1883H17.8604V10.6063C17.8604 8.29523 19.7051 6.41517 21.9738 6.41517H22.5295V7.54905V7.55013ZM25.9809 24.3569H22.9854V22.7964H25.9809V24.3569ZM25.9809 22.0654H22.9854V21.3582H25.9809V22.0654ZM25.9809 20.6261H22.9854V17.8396H25.9809V20.6261ZM25.9809 17.1074H22.9854V16.4003H25.9809V17.1074ZM25.9809 15.6682H22.9854V14.0286C23.4721 14.1834 23.9779 14.2625 24.489 14.2625C25.0001 14.2625 25.4995 14.1845 25.9809 14.0307V15.6682ZM24.4901 13.6452C23.9779 13.6452 23.4721 13.565 22.9854 13.4069L23.4678 12.2416H24.0353L23.844 12.873C23.844 12.873 24.0225 12.977 24.4826 12.977C24.9427 12.977 25.0936 12.8773 25.0936 12.8773L24.93 12.2427H25.4974L25.9799 13.4102C25.4985 13.5672 24.9969 13.6463 24.489 13.6463L24.4901 13.6452ZM36.6155 24.3569H35.503V21.1416C35.503 19.9503 34.5519 18.981 33.3841 18.981C32.2163 18.981 31.2631 19.9503 31.2631 21.1416V24.3569H30.1506V21.1416C30.1506 19.3243 31.601 17.8471 33.3841 17.8471C35.1672 17.8471 36.6155 19.3254 36.6155 21.1416V24.3569ZM33.3841 15.9281C34.9642 15.9281 36.3127 17.1151 36.5709 18.6778C35.8143 17.6609 34.6422 17.0631 33.3841 17.0631C32.126 17.0631 30.9529 17.662 30.1952 18.6789C30.4524 17.1151 31.803 15.9281 33.3841 15.9281ZM30.1952 16.7587C30.4524 15.1949 31.803 14.0091 33.3841 14.0091C34.9653 14.0091 36.3127 15.196 36.5709 16.7587C35.8143 15.7418 34.6422 15.1429 33.3841 15.1429C32.126 15.1429 30.9529 15.7418 30.1952 16.7587ZM38.4985 24.3569H37.3849V17.3035C37.3849 15.0541 35.5901 13.2239 33.3841 13.2239C31.1781 13.2239 29.3802 15.053 29.3802 17.3035V24.3569H28.2676V17.3035C28.2676 14.4282 30.5629 12.09 33.3841 12.09C36.2053 12.09 38.4985 14.4282 38.4985 17.3035V24.3569Z" fill="var(--fill-0, black)"/>
<path id="Vector_14" d="M6.28642 1.58841L6.28746 1.58641L6.28847 1.58442L6.28642 1.58841Z" fill="var(--fill-0, white)"/>
<path id="Vector_15" d="M1.90844 6.67865H2.28142V7.10753H1.90844V6.67865ZM3.16232 5.61301H3.39928V5.89461H3.16232V5.61301ZM0.39528 1.66771L0.321959 1.58107H0.312396L0.462224 1.75543V5.31196C0.565296 5.90001 0.755507 6.31481 1.11467 6.77615C1.2443 6.92019 1.37076 7.05014 1.5259 7.18226C1.80536 7.38153 2.01364 7.52233 2.36961 7.64684C2.65333 7.75406 2.9923 7.80929 3.31852 7.81037C2.99336 7.80821 2.65439 7.75298 2.37174 7.64684L2.1284 7.54938L2.88179 6.7653V6.55086H2.40999V6.02996H3.38228V6.24441L4.04323 5.55453V5.51555H3.03693V5.89569H2.2591V6.55198H1.74479V7.15628C1.62897 7.08044 1.47914 6.94076 1.4834 6.94616C1.34738 6.82813 1.28894 6.74797 1.18268 6.62126C1.07748 6.49675 0.98503 6.34294 0.909581 6.21839C0.788446 5.96389 0.697061 5.82637 0.603552 5.33145V1.75001L6.09196 1.75434V3.40481L5.86137 3.66039L6.1897 3.31817V1.75434L6.28426 1.58757L6.22689 1.66771H0.39528Z" fill="var(--fill-0, white)"/>
<path id="Vector_16" d="M5.00701 2.94572C4.99001 2.94897 4.98361 2.93814 4.96554 2.93056C4.95282 2.91973 4.93157 2.81792 4.93051 2.79735C4.92411 2.7876 4.91775 2.78327 4.91563 2.7811C4.87738 2.75186 4.81573 2.6988 4.81361 2.65765H4.80725C4.80619 2.63599 4.78278 2.60025 4.82319 2.59808C4.83061 2.60891 4.84656 2.61216 4.84656 2.61866L4.86674 2.62516C4.86674 2.63707 4.90287 2.67064 4.91775 2.68039C4.95706 2.67822 4.96876 2.73778 4.99637 2.75836C4.99849 2.76702 5.00595 2.77677 5.01231 2.78327C5.0442 2.81143 5.00701 2.92839 5.08987 2.9468H5.00913L5.00701 2.94572ZM4.95812 3.89658C4.94642 3.90307 4.94006 3.90957 4.93157 3.91715C4.91563 3.90957 4.8901 3.90849 4.87204 3.90849C4.82743 3.85867 4.79024 3.77745 4.79024 3.70164L4.96982 3.66373L5.0219 3.67673C5.05162 3.74713 5.00913 3.84676 4.95812 3.89766M4.77748 4.10884C4.7626 4.11426 4.7626 4.13375 4.73923 4.14133C4.60638 4.06769 4.498 3.94639 4.4385 3.79694V3.75471L4.6149 3.69839L4.62979 3.70164C4.64997 3.72438 4.66591 3.74063 4.68928 3.75471C4.69458 3.84026 4.73923 3.91065 4.78596 3.97888C4.78596 4.02762 4.79024 4.06769 4.77748 4.10992M4.23662 4.12509C4.16224 4.07635 4.08998 4.00054 4.06553 3.92582L4.21537 3.83485C4.23874 3.8316 4.25998 3.84568 4.27593 3.85759L4.36837 4.02978C4.42362 4.10992 4.51712 4.14891 4.6202 4.18681L4.6691 4.2518L4.6808 4.31244C4.54689 4.22799 4.3556 4.26805 4.23768 4.124M3.98371 4.19225L3.85513 4.02978C3.86576 4.01245 3.88701 3.99513 3.91145 3.98863C3.94864 3.98863 3.97627 4.0222 4.00177 4.04928L4.05809 4.19225C4.0464 4.22038 4.00709 4.18572 3.98371 4.19225ZM3.751 4.17924C3.734 4.16191 3.72762 4.14566 3.71062 4.13916C3.70212 4.13267 3.69787 4.11859 3.69043 4.10234C3.69043 4.09476 3.69043 4.08393 3.6968 4.0731C3.70105 4.0731 3.70318 4.0731 3.70955 4.07202L3.77118 4.07744L3.84982 4.21498C3.82113 4.23988 3.77969 4.19981 3.74994 4.17924M3.802 2.66306C3.9412 2.66306 4.13141 2.6479 4.22173 2.76594C4.25044 2.81251 4.29399 2.84933 4.30993 2.90023C4.21537 2.91323 4.10593 2.92298 4.00177 2.8894C3.93483 2.8894 3.90401 2.85041 3.86257 2.82875L3.79244 2.67606C3.79244 2.67606 3.79244 2.66198 3.80306 2.66414M4.2685 2.66739C4.35666 2.70096 4.4098 2.81034 4.52988 2.81034C4.58514 2.83092 4.57665 2.87316 4.5979 2.9154C4.57347 2.9598 4.53629 2.95005 4.49376 2.94355C4.36625 2.89482 4.328 2.76378 4.25892 2.66739H4.26956H4.2685ZM4.60214 2.72371L4.77748 2.71179C4.77748 2.71179 4.78812 2.71179 4.79024 2.71721C4.80725 2.72804 4.80937 2.72695 4.80937 2.73995C4.80831 2.74428 4.79766 2.75078 4.7966 2.75295C4.78384 2.76053 4.78066 2.76378 4.77642 2.76594C4.75411 2.76702 4.74029 2.77136 4.71587 2.77352C4.71693 2.78002 4.71587 2.79193 4.70946 2.79193C4.7084 2.79193 4.7031 2.80493 4.70098 2.81034C4.70204 2.81576 4.70522 2.83417 4.70628 2.8385C4.69992 2.8385 4.73393 2.88507 4.73605 2.89049C4.75729 2.90132 4.77112 2.88615 4.79342 2.8959L4.80084 2.89265C4.81467 2.89698 4.84337 2.90457 4.86144 2.90348C4.86356 2.9089 4.86144 2.93164 4.86674 2.93164C4.86674 2.93489 4.8678 2.93922 4.86674 2.94247C4.86674 2.94788 4.86144 2.94897 4.85292 2.94897C4.81785 2.94897 4.73071 2.94897 4.72753 2.94897C4.72329 2.93705 4.72117 2.94897 4.71799 2.93705C4.71158 2.93705 4.68716 2.93272 4.6808 2.93381L4.67228 2.92731C4.64467 2.90023 4.65103 2.82767 4.62444 2.79951H4.61808V2.7941L4.6149 2.78868H4.60854L4.58726 2.74212L4.5979 2.73562C4.59366 2.72371 4.6032 2.73562 4.59896 2.72371M3.66705 2.72154C3.63942 2.72154 3.6373 2.69771 3.62348 2.67822L3.62986 2.67497L3.66811 2.7053C3.66811 2.7053 3.66811 2.71612 3.66599 2.72262M3.48109 2.70421C3.46622 2.69122 3.47259 2.66739 3.4694 2.64682L3.48109 2.64357H3.49916C3.52254 2.64682 3.52997 2.67389 3.55972 2.67714C3.57354 2.68905 3.57779 2.70313 3.58629 2.72587C3.55972 2.75186 3.51297 2.72154 3.48109 2.70421ZM3.22606 2.82442C3.14318 2.76919 3.05499 2.67822 3.03692 2.60999C3.1485 2.61433 3.20269 2.73562 3.29833 2.79626C3.37058 2.78977 3.43646 2.79518 3.51085 2.81143C3.53529 2.82767 3.55654 2.83525 3.57779 2.84933C3.47684 2.89157 3.33658 2.86991 3.22713 2.82442M2.54918 2.67497C2.54493 2.66847 2.54493 2.66089 2.54493 2.6544L2.71282 2.62407L2.85415 2.63923L3.0688 2.89482C2.85309 2.92514 2.69157 2.81792 2.54918 2.67497ZM2.50774 2.72587C2.49712 2.73778 2.4748 2.74428 2.4493 2.74428L2.37598 2.68364C2.37173 2.67281 2.37066 2.65981 2.37598 2.64682C2.37917 2.64682 2.38235 2.64682 2.38873 2.64357L2.5003 2.67389C2.51199 2.68472 2.51306 2.70746 2.50668 2.72587M2.27822 2.84716C2.24209 2.82334 2.19533 2.8006 2.18046 2.74428L2.27078 2.66198C2.27715 2.66198 2.28353 2.66631 2.29097 2.67389C2.3016 2.68039 2.3016 2.69771 2.3016 2.71396L2.46949 2.88724L2.28034 2.84608L2.27822 2.84716ZM2.19852 2.9533C2.11245 2.9533 2.04019 3.04102 1.95731 3.00528C1.90205 2.95438 1.88399 2.90673 1.84255 2.86991L1.97537 2.79518C2.07526 2.78868 2.12839 2.85799 2.19852 2.90781C2.20171 2.91323 2.21021 2.92514 2.21021 2.93814C2.21021 2.94572 2.20171 2.94355 2.19852 2.9533ZM5.6775 3.22405L5.58718 3.1634L5.54575 3.02044L5.13346 2.89699C5.13346 2.89699 5.12176 2.88832 5.1207 2.88182L5.09945 2.75728C5.10687 2.74428 5.11752 2.72154 5.14406 2.71504C5.22802 2.70854 5.29074 2.75186 5.38424 2.75836C5.43313 2.78002 5.49262 2.7876 5.52557 2.75728C5.53193 2.74428 5.53829 2.73562 5.54469 2.72695L5.53829 2.61433C5.49474 2.56992 5.45013 2.49844 5.36511 2.50494C5.27691 2.50061 5.19189 2.49086 5.1101 2.4822C5.08669 2.44538 5.02614 2.45837 4.99001 2.42805C4.70734 2.42155 4.44274 2.41939 4.16012 2.3739C4.05809 2.33275 3.94014 2.34033 3.84238 2.30026C3.45134 2.19738 3.06561 2.19738 2.66713 2.13781C2.56406 2.09449 2.44717 2.08475 2.33666 2.08258C2.23996 2.07717 2.21021 2.17355 2.12626 2.16814C1.98812 2.1194 1.84467 2.01868 1.69272 2.06417C1.55139 2.18979 1.36012 2.04576 1.1986 2.05334C1.1816 2.05334 1.1646 2.07175 1.15823 2.09124C1.24642 2.19521 1.40262 2.21037 1.54183 2.25044C1.6024 2.24719 1.63853 2.27968 1.6789 2.30567C1.68528 2.31651 1.68209 2.33167 1.67041 2.33925L1.37925 2.45513L1.28999 2.62082C1.21029 2.65765 1.14547 2.73237 1.11678 2.83525C1.1221 2.86124 1.12741 2.87424 1.13804 2.88615C1.16885 2.91973 1.22836 2.89915 1.2698 2.87749C1.33037 2.81684 1.409 2.76161 1.48232 2.70638C1.52058 2.68255 1.5567 2.66739 1.6024 2.6544C1.6109 2.6544 1.62578 2.65873 1.63215 2.66631L1.62578 2.71396L1.50039 2.86883C1.50039 2.89915 1.53439 2.92406 1.56095 2.93705H1.68209C1.72034 2.94897 1.70334 2.99662 1.72247 3.02802C1.72247 3.0616 1.69272 3.08001 1.67041 3.10058C1.58008 3.10058 1.5142 3.14823 1.44088 3.18506C1.26873 3.28577 1.04559 3.28577 0.929762 3.43739C0.914886 3.48288 0.898947 3.52186 0.919135 3.55977C0.942513 3.58684 1.00096 3.58684 1.0254 3.56302C1.08384 3.53594 1.11572 3.50237 1.16673 3.46663L1.28786 3.45797C1.28786 3.48829 1.22304 3.51212 1.22092 3.5706C1.20179 3.63774 1.1391 3.64641 1.10935 3.70814C1.10616 3.71464 1.09766 3.72113 1.09766 3.72113C1.09128 3.76337 1.09128 3.81644 1.13591 3.84026C1.18904 3.8825 1.2613 3.85326 1.29424 3.82943C1.31443 3.80886 1.33356 3.80127 1.35799 3.79261C1.375 3.79911 1.36437 3.81752 1.36331 3.83268L1.26236 3.90524C1.25386 3.91824 1.25917 3.94314 1.26873 3.95506C1.36543 3.98538 1.46957 3.90524 1.57158 3.88466C1.65128 3.85217 1.75116 3.81752 1.83936 3.84676C1.82448 3.89766 1.76285 3.90741 1.7331 3.92798C1.67784 3.94314 1.61621 3.93665 1.60133 3.99729C1.59708 4.03303 1.60771 4.06985 1.63959 4.0861C1.69803 4.12292 1.78091 4.12942 1.83192 4.16731C1.94881 4.22255 2.07313 4.15975 2.16133 4.11642C2.20064 4.04711 2.28566 4.04061 2.32603 3.98646H2.34623C2.35472 3.99296 2.34623 4.00487 2.34304 4.01679C2.30266 4.05686 2.26015 4.10126 2.20702 4.13808C2.19215 4.15324 2.19215 4.16731 2.18471 4.18032C2.18471 4.20738 2.20809 4.22799 2.23571 4.23771C2.37598 4.27453 2.5173 4.26369 2.60762 4.17056C2.7192 4.17056 2.85096 4.22147 2.95191 4.15975L2.98485 4.07744L3.15274 3.98646C3.1825 3.98646 3.20588 4.01137 3.21757 4.0352C3.21863 4.04711 3.22182 4.05686 3.22182 4.05686L3.11024 4.15975C3.01354 4.18356 2.92428 4.21822 2.87222 4.30271C2.85947 4.34061 2.85203 4.36983 2.87115 4.39368C2.98698 4.42182 3.11556 4.3904 3.24732 4.40017C3.39502 4.37199 3.41309 4.24204 3.53635 4.17056L3.5746 4.17708L3.67555 4.29295L3.86895 4.34169C3.96564 4.43591 4.06234 4.52796 4.22491 4.52688C4.23768 4.53768 4.24616 4.53989 4.26104 4.54313C4.32906 4.62217 4.38537 4.73479 4.4927 4.79003C4.58302 4.8128 4.65845 4.78678 4.72011 4.8431L5.17065 4.37307C5.13134 4.36443 5.13876 4.34493 5.0665 4.32652C5.01655 4.29835 4.973 4.25612 4.96448 4.19981C4.96448 4.16623 4.96342 4.14566 4.973 4.11751C4.98361 4.09368 5.02826 4.08502 5.03674 4.04603L5.06544 3.95506C5.08881 3.9269 5.14834 3.90524 5.18447 3.91932C5.24927 3.9583 5.30668 3.9583 5.37253 3.94964C5.4076 3.93448 5.43097 3.91932 5.46073 3.90416C5.51387 3.84568 5.42249 3.74279 5.4905 3.68972L5.6722 3.60742L5.70197 3.54677C5.64884 3.44281 5.7551 3.32259 5.6722 3.2208" fill="var(--fill-0, white)"/>
<path id="Vector_17" d="M5.20886 4.37947C5.19507 4.37947 5.18443 4.37731 5.17595 4.37623L4.72537 4.84625C4.73389 4.85382 4.74347 4.86246 4.75089 4.87439L4.04425 5.65739V5.55557L3.38225 6.24436V6.35483L2.88175 6.89525V6.7653L2.12943 7.54938L2.37277 7.64684C2.65542 7.75406 2.99333 7.80929 3.31849 7.81037C3.51401 7.81145 3.70316 7.79412 3.87424 7.7573C3.89124 7.75406 3.9178 7.74861 3.94331 7.74429C4.29929 7.66525 4.55325 7.54394 4.84864 7.37284C4.89011 7.33386 4.94536 7.31653 4.98679 7.27863C4.74025 7.2017 4.47247 7.37608 4.20791 7.2613C4.091 7.24613 3.96456 7.27863 3.83279 7.30892C3.52995 7.30028 3.27174 7.22664 2.92001 7.3046C2.81906 7.28943 2.69899 7.2667 2.62567 7.20823C2.62567 7.20823 2.62567 7.19846 2.62885 7.18766C2.64586 7.1584 2.66817 7.13351 2.70324 7.13351C2.77975 7.15732 2.85625 7.20391 2.95402 7.21795C3.31105 7.0555 3.64684 7.29159 4.00919 7.15732C4.38537 7.24613 4.74983 7.16817 5.1196 7.17249C5.15789 7.13675 5.20144 7.12918 5.25563 7.05118C5.10047 7.03277 4.93259 6.94832 4.75937 7.00247C4.47247 7.18113 4.17284 6.90173 3.85086 7.07611C3.77754 7.09669 3.70103 7.09669 3.61921 7.08152C3.40669 6.95913 3.15485 7.04794 2.92426 7.08152C2.88282 7.06311 2.852 7.05662 2.81588 7.04794C2.80844 7.04145 2.80844 7.03493 2.80844 7.02737C2.81694 7.0122 2.85519 6.96889 2.88813 6.96129C3.01565 7.00571 3.1219 6.93639 3.25792 6.9093C3.35887 6.89957 3.51826 6.89633 3.66384 6.95372C3.78179 7.00027 3.95499 6.94724 4.09312 6.92123C4.30777 6.92771 4.52242 7.0198 4.73707 6.92447C4.77532 6.91258 4.79872 6.89525 4.84864 6.89089C4.93365 6.88981 4.95172 6.87684 5.0495 6.9115C5.16637 6.95156 5.24498 6.9548 5.35231 6.96889C5.46392 6.84434 5.54889 6.75553 5.6435 6.6245C5.76354 6.4534 5.89109 6.24652 5.97289 6.031C5.8252 6.01259 5.66898 6.031 5.51705 6.07327C5.19401 6.00827 4.86992 6.06674 4.54579 6.07003C4.35984 6.01588 4.15266 5.96929 3.98687 6.02344C3.91568 6.03969 3.86573 6.07651 3.8211 6.02884C3.81792 6.01043 3.8413 5.94872 3.87849 5.94872C3.87849 5.95196 3.91249 5.94872 3.93162 5.95304C4.32054 5.81224 4.66693 6.08952 5.06222 5.90321C5.37359 6.04293 5.71151 5.87616 6.00902 5.94548C6.06003 5.85775 6.0122 5.94656 6.06003 5.80251C5.96547 5.76569 5.84538 5.76461 5.73594 5.78302C5.52447 5.90429 5.33 5.83825 5.10153 5.7711C4.85504 5.79167 4.61274 5.93463 4.37473 5.80035C4.26528 5.75485 4.18663 5.75809 4.07294 5.79711C4.05063 5.80143 4.03469 5.80035 4.03469 5.78194C4.05488 5.76353 4.05913 5.73536 4.11437 5.7083C4.23764 5.67148 4.31842 5.66388 4.45653 5.70394C4.71689 5.86099 5.01121 5.63358 5.26305 5.7007C5.46073 5.82201 5.67534 5.68773 5.86875 5.66388L6.09404 5.68773C6.1833 5.36499 6.20348 5.07474 6.20136 4.73359C6.18754 4.71626 6.14505 4.73795 6.10892 4.74552C5.80925 4.69353 5.51277 4.73903 5.20356 4.73035C5.16213 4.71086 5.10899 4.70437 5.07923 4.67296C5.08775 4.64482 5.11748 4.63289 5.13236 4.61232C5.13236 4.61232 5.14406 4.60796 5.15254 4.60796C5.37784 4.72711 5.61267 4.56033 5.84644 4.62749C5.96653 4.64262 6.10998 4.66323 6.20242 4.60148L6.19072 4.49317C5.97289 4.58415 5.75188 4.39788 5.52447 4.50726C5.43415 4.51811 5.32046 4.57114 5.24821 4.50078L5.313 4.42714C5.33212 4.41521 5.35765 4.43362 5.38314 4.4401C5.6605 4.30907 5.924 4.44987 6.18966 4.36754V3.32031L5.8592 3.66362L5.20568 4.38163L5.20886 4.37947Z" fill="var(--fill-0, white)"/>
<path id="Vector_18" d="M2.97214 6.18365V6.44139H3.19316L3.29517 6.33525V6.18365H2.97214Z" fill="var(--fill-0, white)"/>
<path id="Vector_19" d="M3.19315 6.44148H3.29516V6.33534L3.19315 6.44148Z" fill="var(--fill-0, white)"/>
<path id="Vector_20" d="M2.86059 6.18365H2.53968V6.44031H2.86059V6.18365Z" fill="var(--fill-0, white)"/>
<path id="Vector_21" d="M5.16963 8.62612C5.15687 8.62612 5.14516 8.63692 5.14516 8.65101C5.14516 8.6651 5.15687 8.67595 5.16963 8.67595C5.18235 8.67595 5.19299 8.66402 5.19299 8.65101C5.19299 8.63805 5.18235 8.62612 5.16963 8.62612Z" fill="var(--fill-0, white)"/>
<path id="Vector_22" d="M5.60325 8.62612C5.58943 8.62612 5.57772 8.64129 5.57772 8.6597C5.57772 8.67811 5.58836 8.69328 5.60325 8.69328C5.61597 8.69328 5.62767 8.67811 5.62767 8.6597C5.62767 8.64129 5.61597 8.62612 5.60325 8.62612Z" fill="var(--fill-0, white)"/>
<path id="Vector_23" d="M1.66086 8.54051C1.6481 8.53074 1.63004 8.52426 1.6141 8.52426C1.56097 8.53074 1.53759 8.56756 1.5344 8.64881C1.5344 8.67262 1.53759 8.69319 1.53759 8.71269C1.54396 8.73326 1.55353 8.74626 1.56416 8.75707C1.57797 8.77008 1.59072 8.77768 1.6141 8.77768H1.61729C1.66404 8.7744 1.69061 8.73326 1.69061 8.64989C1.69061 8.62932 1.68742 8.60655 1.68423 8.58922C1.67786 8.56864 1.67148 8.55564 1.66086 8.54159" fill="var(--fill-0, white)"/>
<path id="Vector_24" d="M0.968067 8.54051C0.955316 8.53074 0.938313 8.52426 0.921313 8.52426C0.871369 8.53074 0.844804 8.56756 0.841615 8.64881C0.841615 8.67262 0.845868 8.69319 0.849057 8.71269C0.852241 8.73326 0.861807 8.74626 0.875618 8.75707C0.885185 8.77008 0.902185 8.77768 0.922377 8.77768H0.925562C0.976569 8.7744 0.999947 8.73326 1.00314 8.64989C1.00314 8.62932 0.999947 8.60655 0.992509 8.58922C0.985071 8.56864 0.975505 8.55564 0.969132 8.54159" fill="var(--fill-0, white)"/>
<path id="Vector_25" d="M6.02716 8.30342V8.02402L6.25988 8.30342H6.02716ZM6.19932 8.66838C5.97615 8.59258 5.7679 8.80594 5.54473 8.71713C5.52561 8.71061 5.50649 8.68031 5.51607 8.65214C5.54473 8.60451 5.55644 8.56116 5.61275 8.55144C5.64782 8.5915 5.66058 8.65214 5.72431 8.66947C5.81251 8.67379 5.90924 8.65866 5.97403 8.62184C5.96661 8.5915 5.9209 8.58282 5.88583 8.57093C5.8391 8.58394 5.81251 8.61423 5.77639 8.62832C5.75938 8.60775 5.78385 8.58282 5.80615 8.56116C5.83592 8.54383 5.8497 8.51354 5.88583 8.50917L6.20992 8.63481C6.21845 8.64997 6.20992 8.65866 6.19826 8.66838M5.39174 8.90664L5.35561 8.87634C5.34603 8.85249 5.33755 8.81783 5.35561 8.79402C5.3758 8.81243 5.39174 8.84384 5.42253 8.85465C5.49588 8.85901 5.55432 8.82435 5.60745 8.77561C5.62233 8.76584 5.63399 8.77236 5.64252 8.77669C5.58404 8.85901 5.50118 8.91749 5.3928 8.90664M4.99539 8.9034C4.96562 8.87958 4.9518 8.86766 4.93798 8.84384C4.93798 8.83732 4.94544 8.84276 4.9465 8.82976L4.99857 8.85357C5.06977 8.86658 5.11866 8.82107 5.16963 8.77885C5.18133 8.76912 5.19197 8.74527 5.18769 8.72145L5.09949 8.71061C5.07719 8.68571 5.09949 8.6294 5.11226 8.59906C5.13562 8.57201 5.1505 8.55252 5.18133 8.55252C5.19516 8.559 5.20576 8.57633 5.21322 8.59906C5.24829 8.64781 5.31414 8.624 5.37262 8.61099C5.3811 8.60235 5.39068 8.59906 5.39068 8.59906C5.41935 8.54491 5.37262 8.46155 5.35027 8.40416C5.34709 8.40087 5.33543 8.40087 5.32372 8.39223L5.33543 8.34348H5.33861L5.39068 8.35757C5.39068 8.42473 5.41404 8.51025 5.42041 8.58718C5.41935 8.60451 5.40874 8.63156 5.40874 8.63481C5.32054 8.6944 5.22704 8.73878 5.1505 8.82759C5.09949 8.86982 5.06871 8.91749 4.99433 8.90016M4.60222 8.77777C4.58522 8.72037 4.58204 8.68896 4.58946 8.64565C4.59158 8.63805 4.61494 8.58502 4.62135 8.5915C4.61923 8.64889 4.62241 8.70412 4.64471 8.75503C4.73291 8.80266 4.83065 8.75179 4.91249 8.70737C4.96986 8.64889 4.8806 8.55468 4.91779 8.47235L4.92949 8.47888L5.00811 8.55144C4.96244 8.60883 5.023 8.6998 4.90291 8.75936C4.79881 8.81675 4.72761 8.86009 4.60328 8.77777M4.75946 8.50377C4.7818 8.50377 4.80093 8.51678 4.80093 8.53195C4.80093 8.54708 4.7818 8.56116 4.75946 8.56116C4.73715 8.56116 4.71909 8.5482 4.71909 8.53195C4.71909 8.5157 4.73715 8.50377 4.75946 8.50377ZM4.19523 8.67815V8.37706L4.44707 8.67815H4.19523ZM4.11233 9.2608H4.00183V8.92505H3.83181V9.2608H3.72874V8.78969H4.11233V9.2608ZM3.60336 9.2608H3.49284V8.79402H3.60336V9.2608ZM3.36321 9.11352L3.26013 9.2608H3.11349L3.25376 9.05937V8.92505H2.9711V8.73338H3.0848V8.79077H3.36533V9.1146L3.36321 9.11352ZM2.85315 9.2608H2.73626V8.79402H2.85315V9.2608ZM2.60981 9.34201H2.49292V8.79402H2.60981V9.34201ZM2.48868 8.67707H2.23365L2.48868 8.37166V8.67707ZM2.18052 8.8406H2.04769L1.92443 8.54708V8.8406H1.8373V8.45723H1.97331L2.09657 8.74311V8.45723H2.17946V8.8406H2.18052ZM1.78416 8.72578C1.77673 8.74635 1.76398 8.7702 1.74697 8.78645C1.73635 8.80702 1.71722 8.82435 1.69703 8.83084C1.67365 8.84493 1.64709 8.84817 1.61733 8.85141C1.57377 8.85141 1.53764 8.84168 1.50789 8.82543C1.48451 8.80486 1.46432 8.78101 1.45157 8.75071C1.43775 8.72362 1.43138 8.69332 1.43138 8.65974C1.43138 8.6294 1.43457 8.60559 1.442 8.57849C1.45263 8.55468 1.45901 8.53087 1.47176 8.51462C1.4877 8.49513 1.50576 8.48104 1.52807 8.47127C1.55145 8.45723 1.58227 8.4507 1.6184 8.4507C1.63859 8.45394 1.66196 8.45723 1.68215 8.46371C1.70234 8.47127 1.72147 8.48104 1.73847 8.49729C1.75441 8.51354 1.76822 8.53087 1.77779 8.55792C1.78841 8.58502 1.79479 8.61531 1.79479 8.64889C1.79479 8.67923 1.78841 8.70304 1.78523 8.72686M1.40056 8.8406H1.14766V8.45723H1.24436V8.76696H1.40056V8.84168V8.8406ZM1.09134 8.72578C1.08497 8.74635 1.07222 8.7702 1.0584 8.78645C1.04458 8.80702 1.0244 8.82435 1.00527 8.83084C0.985079 8.84493 0.955329 8.84817 0.92451 8.85141C0.882008 8.85141 0.848004 8.84168 0.81825 8.82543C0.792748 8.80486 0.771495 8.78101 0.758744 8.75071C0.749182 8.72362 0.742805 8.69332 0.742805 8.65974C0.742805 8.6294 0.745993 8.60559 0.752367 8.57849C0.758744 8.55468 0.765122 8.53087 0.778933 8.51462C0.795937 8.49513 0.812936 8.48104 0.839503 8.47127C0.858631 8.45723 0.892635 8.4507 0.925574 8.4507C0.945763 8.45394 0.96914 8.45723 0.989332 8.46371C1.01271 8.47127 1.02971 8.48104 1.04671 8.49729C1.06371 8.51354 1.07646 8.53087 1.08709 8.55792C1.09772 8.58502 1.10303 8.61531 1.10303 8.64889C1.10303 8.67923 1.09984 8.70304 1.0924 8.72686M0.684364 8.8406H0.59085V8.68571H0.473964V8.8406H0.377267V8.45723H0.473964V8.60451H0.59085V8.45723H0.684364V8.8406ZM0.57385 8.02402V8.30342H0.341138L0.57385 8.02402ZM5.98785 7.92004V8.30342H4.14104V8.67815L2.54181 8.68031V8.30342H0.609979V7.92004L0.28482 8.30018V9.00085H2.16352V9.39291L4.53315 9.39616V8.99977H6.30347V8.3045L5.98573 7.92112L5.98785 7.92004Z" fill="var(--fill-0, white)"/>
<path id="Vector_26" d="M6.32895 1.4674L6.35834 1.38834V1.36993L6.32895 1.4674Z" fill="var(--fill-0, white)"/>
<path id="Vector_27" d="M6.32577 1.47909H6.32683L6.32891 1.46733L6.32577 1.47909Z" fill="var(--fill-0, white)"/>
<path id="Vector_28" d="M3.78394 0.282772H3.65537V0.411647H3.78394V0.282772Z" fill="var(--fill-0, white)"/>
<path id="Vector_29" d="M3.36423 0.282772H3.23566V0.411647H3.36423V0.282772Z" fill="var(--fill-0, white)"/>
<path id="Vector_30" d="M2.46951 0.646541L2.29311 0.0747258H2.59277V0.14512H2.76704V0.0747258H3.004V0.14512H3.17508V0.0747258H3.40779V0.144037H3.5725V0.0747258H3.81371V0.14512H3.98479V0.0747258H4.28551L4.11551 0.646541H2.46845H2.46951ZM5.3853 0.646541V0.605386H5.26207V0.646541H4.20049L4.38435 0H2.18579L2.38556 0.646541H1.96052V0.605386H1.83726V0.646541H0.249714V0.605386H0.126451V0.646541H0L0.232712 1.46419L0.0658821 0.681197H6.35762V1.36997L6.5648 0.646541H5.38636H5.3853Z" fill="var(--fill-0, white)"/>
<path id="Vector_31" d="M2.94236 0.282772H2.81485V0.411647H2.94236V0.282772Z" fill="var(--fill-0, white)"/>
<path id="Vector_32" d="M6.27048 1.04194L6.21417 0.917403L6.1908 0.961804V1.04194H6.13767V0.921733L6.18444 0.844842L6.13131 0.733295H6.20462L6.25453 0.844842L6.27794 0.813436V0.733295H6.33107V0.856752L6.28748 0.920648L6.34061 1.04086H6.27048V1.04194ZM6.07071 1.09393H6.01758V0.821016H5.95491V0.896823H5.90496V0.821016H5.88477V0.733295H6.07071V1.09393ZM5.72219 0.957473L5.668 1.04194H5.55216V0.954223H5.57874V0.734375H5.63187V0.954223H5.64566L5.66482 0.917403V0.733295H5.72219V0.957473ZM5.4916 0.945558L5.44165 1.04194H5.36833L5.43529 0.909818V0.822097H5.30244V0.694309H5.35557V0.734375H5.49266V0.946643L5.4916 0.945558ZM5.13562 1.04194H4.9518V0.954223H5.08143V0.822097H5.02088V0.897908H4.9741V0.822097H4.9518V0.734375H5.13562V1.04303V1.04194ZM4.89227 0.889243H4.83913V0.733295H4.89227V0.889243ZM4.66808 0.957473L4.61812 1.04194H4.49168V0.954223H4.59794L4.61494 0.917403V0.821016H4.49168V0.733295H4.66808V0.957473ZM4.42578 1.09393H4.37265V0.733295H4.42578V1.09393ZM3.57252 1.53903L3.44607 1.45889V0.745205L3.57252 0.808021V1.53903ZM3.15173 1.45781L3.02528 1.53795V0.806936L3.15173 0.744125V1.45781ZM2.1805 1.05169H2.12737V0.74304H2.1805V1.05169ZM2.0668 0.955304L2.01367 1.05169H1.94354L2.01367 0.919568V0.827512H1.87659V0.702969H1.92972V0.74304H2.06574V0.955304H2.0668ZM1.8139 1.05169H1.73102V0.959638H1.76077V0.827512H1.74696L1.68745 1.05278H1.62369L1.68001 0.864337H1.63007V0.744125H1.68745V0.852422L1.7172 0.744125H1.8139V1.05278V1.05169ZM1.57056 1.05169H1.51318V0.842676L1.50362 0.826431H1.39629V0.741959H1.53974L1.5695 0.785276V1.05061L1.57056 1.05169ZM1.33785 1.05169H1.28472V0.74304H1.33785V1.05169ZM1.22096 1.05169H1.16464V0.826431H1.09132V1.05169H1.01163V0.959638H1.03926V0.74304H1.22202V1.05169H1.22096ZM0.843735 1.05169H0.790603V0.826431H0.660966V0.741959H0.843735V1.05061V1.05169ZM0.715158 1.05169H0.66203V0.891408H0.715158V1.05169ZM0.598272 0.963969L0.54514 1.05278H0.415502V0.960719H0.521762L0.54514 0.928233V0.827512H0.415502V0.74304H0.599336V0.962888L0.598272 0.963969ZM0.351746 0.955304L0.301803 1.05169H0.228483L0.298616 0.919568V0.827512H0.165789V0.702969H0.21892V0.74304H0.351746V0.955304ZM0.0659037 0.681309L0.232734 1.46539L0.235922 1.47947H2.19538L2.38346 0.718134H2.94877V1.58452H0.321993L0.395313 1.66899H6.22799L6.28536 1.58885L6.28854 1.58452H3.64584V0.718134H4.19523L4.39605 1.47947H6.32467L6.32895 1.46756L6.35762 1.37009V0.681309H0.0659037Z" fill="var(--fill-0, white)"/>
<path id="Vector_33" d="M11.4592 29.3292V31.0566H12.5505V29.5025C12.5505 29.352 12.4698 29.3282 12.3646 29.3282H11.4592V29.3292ZM12.3997 29.0141C12.694 29.0141 12.9575 29.2394 12.9575 29.5274V31.3815H11.0576V29.3303H10.7016V29.0141H12.4007H12.3997Z" fill="var(--fill-0, white)"/>
<path id="Vector_34" d="M13.9128 30.331V29.3292H13.4208V29.0141H14.3112V30.331H13.9128Z" fill="var(--fill-0, white)"/>
<path id="Vector_35" d="M16.4046 29.3292V31.3815H16.0104V29.3292H14.8139V29.0141H16.7883V29.3292H16.4046Z" fill="var(--fill-0, white)"/>
<path id="Vector_36" d="M18.2472 31.3806H17.8444L18.5255 29.3294H17.2334V28.462H17.6202V29.0143H19.0367L18.2472 31.3806Z" fill="var(--fill-0, white)"/>
<path id="Vector_37" d="M19.9155 30.331V29.3292H19.4235V29.0141H20.314V30.331H19.9155Z" fill="var(--fill-0, white)"/>
<path id="Vector_38" d="M20.8792 29.9412H21.2703V31.3804H20.8792V29.9412ZM22.4349 31.3772V29.3303H20.875V29.0141H22.8291V31.3772H22.4349Z" fill="var(--fill-0, white)"/>
<path id="Vector_39" d="M26.2317 31.3806H25.8364V29.5027C25.8364 29.3533 25.7556 29.3294 25.6505 29.3294H24.404V29.0132H25.6738C25.9947 29.0132 26.2317 29.2384 26.2317 29.5265V31.3806Z" fill="var(--fill-0, white)"/>
<path id="Vector_40" d="M27.1869 30.331V29.3292H26.696V29.0141H27.5854V30.331H27.1869Z" fill="var(--fill-0, white)"/>
<path id="Vector_41" d="M28.4557 29.0141C28.6066 29.0141 28.7192 29.0932 28.7617 29.2437L29.2579 31.0577H29.3121C29.4832 31.0577 29.5257 30.9754 29.5597 30.853L29.9816 29.3303H29.5172V29.0141H30.4544L29.9475 30.8563C29.87 31.1367 29.6957 31.3815 29.3281 31.3815H28.2059V31.0577H28.8605L28.3685 29.3303H28.0508V29.0141H28.4567H28.4557Z" fill="var(--fill-0, white)"/>
<path id="Vector_42" d="M32.2695 30.904H31.8008V31.3816H32.2695V30.904Z" fill="var(--fill-0, white)"/>
<path id="Vector_43" d="M33.247 31.9999V29.4007H32.7794V29.0141H33.7432V31.9999H33.247Z" fill="var(--fill-0, white)"/>
<path id="Vector_44" d="M34.6794 31.3804V29.4007H34.215V29.0141H35.1862V31.3804H34.6794Z" fill="var(--fill-0, white)"/>
<path id="Vector_45" d="M36.7929 31.3806H36.2776L37.0012 29.4009H35.6591V28.462H36.1501V29.0143H37.6547L36.7929 31.3806Z" fill="var(--fill-0, white)"/>
<path id="Vector_46" d="M38.5144 31.3804V29.4007H38.05V29.0141H39.0224V31.3804H38.5144Z" fill="var(--fill-0, white)"/>
<path id="Vector_47" d="M41.832 31.3804H41.3366V29.4007H40.3187V31.3804H39.8235V29.4007H39.4941V29.0141H41.4642C41.666 29.0141 41.832 29.1884 41.832 29.3964V31.3804Z" fill="var(--fill-0, white)"/>
</g>
<defs>
<clipPath id="clip0_0_52">
<rect width="42" height="32" fill="white"/>
</clipPath>
</defs>
</svg>
