<svg preserveAspectRatio="none" width="100%" height="100%" overflow="visible" style="display: block;" viewBox="0 0 68.4662 18.1497" fill="none" xmlns="http://www.w3.org/2000/svg">
<g id="Group 67">
<path id="Vector" d="M13.7039 10.5358C13.1214 11.2244 12.6222 11.8342 12.101 12.4251C11.4 13.2189 10.545 13.6533 9.44322 13.5072C8.62647 13.3981 7.97136 13.0159 7.45874 12.3976C6.97768 11.8181 6.52723 11.213 5.99835 10.5377C5.9821 10.7739 5.96584 10.9057 5.96584 11.0385C5.96393 12.4763 5.99357 13.916 5.94958 15.3528C5.93428 15.8602 5.82047 16.3989 5.61007 16.8589C5.2323 17.6831 4.4605 18.0046 3.59403 18.0823C3.20096 18.1174 2.79067 18.1193 2.40334 18.051C0.822455 17.7694 0.015275 16.8304 0.00953677 15.2314C-0.00385247 11.2016 -0.00193973 7.17086 0.00953677 3.14106C0.0133623 1.72603 0.673261 0.680879 1.85534 0.264526C2.89205 -0.100612 4.40025 -0.0152552 5.35185 1.08585C6.6659 2.60805 8.02491 4.09232 9.36479 5.59176C9.52164 5.76721 9.67848 5.94172 9.8688 6.15511C10.8558 5.03504 11.815 3.94436 12.7771 2.85559C13.3529 2.20403 13.9104 1.53255 14.5168 0.909446C15.4789 -0.0778504 16.6858 -0.125271 17.8813 0.293927C19.0921 0.717867 19.6372 1.72508 19.6554 2.96181C19.6879 5.18963 19.6649 7.4184 19.6659 9.64716C19.6659 11.4643 19.6659 13.2824 19.6659 15.0996C19.6659 17.0334 18.6005 18.0842 16.6543 18.0928C15.8557 18.0966 15.0887 18.0122 14.4919 17.4175C13.9047 16.8323 13.7364 16.084 13.7335 15.2902C13.7287 13.8363 13.7326 12.3824 13.7316 10.9285C13.7316 10.8374 13.7192 10.7454 13.7039 10.5368V10.5358Z" fill="var(--fill-0, black)"/>
<path id="Vector_2" d="M35.5073 0.0235098C37.0557 -0.00873624 38.1172 0.657049 38.7571 2.02086C40.2519 5.20658 41.7658 8.38281 43.2606 11.5685C43.6824 12.4667 44.1376 13.3591 44.4513 14.2952C44.8176 15.3868 44.6741 16.4367 43.8134 17.3178C42.8293 18.3241 40.3379 18.6143 39.2582 16.8948C38.7791 16.1323 38.3047 15.3612 37.7605 14.6452C36.5775 13.0869 34.7126 13.0367 33.453 14.5314C32.9662 15.1099 32.5684 15.7643 32.1456 16.3931C31.6445 17.1385 31.1108 17.8451 30.1545 18.0386C29.0451 18.2624 28.0179 18.0756 27.1945 17.2713C26.3911 16.487 26.2228 15.4836 26.5805 14.4716C26.9573 13.4056 27.4642 12.3823 27.951 11.358C29.3129 8.49377 30.6939 5.63811 32.0672 2.77959C32.2585 2.38126 32.4259 1.9687 32.6506 1.59029C33.2971 0.505303 34.2592 -0.0324465 35.5063 0.0244582L35.5073 0.0235098Z" fill="var(--fill-0, black)"/>
<path id="Vector_3" d="M59.9374 13.6085C59.0413 14.6309 58.1815 15.603 57.3332 16.5856C56.7546 17.2551 56.1292 17.8346 55.2254 18.0547C53.5842 18.4539 51.7308 17.2134 51.53 15.5527C51.3999 14.4782 51.6629 13.5241 52.4136 12.7104C53.4991 11.5343 54.5684 10.3441 55.6816 9.11967C55.5649 8.97171 55.4597 8.82187 55.3373 8.68624C54.3321 7.56522 53.3136 6.45463 52.319 5.32412C51.4917 4.38425 51.1321 3.29737 51.5366 2.07771C52.2195 0.0196557 54.9595 -0.681221 56.5327 0.823909C57.4126 1.66515 58.1815 2.6202 58.9983 3.52593C59.3043 3.86547 59.6056 4.20974 59.9422 4.59005C60.6958 3.74122 61.4074 2.89619 62.1668 2.09573C62.7301 1.50202 63.2914 0.869433 63.9686 0.427473C65.0359 -0.26961 66.3375 -0.0799274 67.3312 0.748036C68.3669 1.61109 68.695 2.78238 68.3105 4.01721C68.0035 5.00261 67.2432 5.64563 66.6053 6.3816C65.8077 7.30156 64.9833 8.19971 64.1464 9.13389C65.1162 10.2094 66.0525 11.2792 67.0261 12.3158C67.7893 13.1277 68.3583 13.9964 68.3162 15.1639C68.2722 16.3921 67.6688 17.2561 66.5909 17.7948C65.493 18.343 64.3913 18.2728 63.4751 17.4666C62.6708 16.7582 61.985 15.916 61.2591 15.1231C60.8221 14.6461 60.408 14.1491 59.9374 13.6094V13.6085Z" fill="var(--fill-0, black)"/>
</g>
</svg>
