<svg preserveAspectRatio="none" width="100%" height="100%" overflow="visible" style="display: block;" viewBox="0 0 272.078 63.2513" fill="none" xmlns="http://www.w3.org/2000/svg">
<g id="logo">
<g id="Group">
<path id="Vector" d="M71.7538 46.3206V52.9816H80.5272V54.5298H71.7538V61.8748H69.9596V44.7724H81.5894V46.3206H71.7538Z" fill="var(--fill-0, #0B0B0B)"/>
<path id="Vector_2" d="M106.607 44.7724H108.39V61.8748H106.607V44.7724Z" fill="var(--fill-0, #0B0B0B)"/>
<path id="Vector_3" d="M146.274 44.7724V61.8748H144.804L133.954 47.9949V61.8748H132.171V44.7724H133.642L144.515 58.6524V44.7724H146.274Z" fill="var(--fill-0, #0B0B0B)"/>
<path id="Vector_4" d="M175.63 57.3082H166.227L164.205 61.8748H162.35L170.062 44.7724H171.82L179.531 61.8748H177.653L175.63 57.3082ZM174.982 55.778L170.932 46.7167L166.881 55.778H174.982Z" fill="var(--fill-0, #0B0B0B)"/>
<path id="Vector_5" d="M209.716 44.7724V61.8748H208.246L197.396 47.9949V61.8748H195.614V44.7724H197.084L207.958 58.6524V44.7724H209.716Z" fill="var(--fill-0, #0B0B0B)"/>
<path id="Vector_6" d="M226.879 53.3236C226.879 48.3969 230.641 44.7724 235.724 44.7724C238.184 44.7724 240.399 45.5885 241.893 47.2207L240.759 48.3489C239.385 46.9567 237.698 46.3566 235.766 46.3566C231.691 46.3566 228.631 49.3331 228.631 53.3236C228.631 57.3142 231.691 60.2906 235.766 60.2906C237.692 60.2906 239.385 59.6905 240.759 58.2743L241.893 59.4025C240.399 61.0347 238.178 61.8748 235.7 61.8748C230.641 61.8748 226.879 58.2503 226.879 53.3236Z" fill="var(--fill-0, #0B0B0B)"/>
<path id="Vector_7" d="M272.078 60.3146V61.8808H260.142V44.7724H271.712V46.3386H261.924V52.4235H270.65V53.9657H261.924V60.3146H272.078Z" fill="var(--fill-0, #0B0B0B)"/>
</g>
<g id="Group_2">
<path id="Vector_8" d="M106.889 7.32705L99.7963 27.748H91.581L88.4845 18.3026L85.274 27.748H77.0587L69.9595 7.32705H77.9528L81.4634 18.1166L85.124 7.32705H92.2951L95.8417 18.2306L99.5023 7.32705H106.889Z" fill="var(--fill-0, #0B0B0B)"/>
<path id="Vector_9" d="M106.889 17.5165C106.889 11.3176 111.858 6.949 118.765 6.949C125.708 6.949 130.641 11.3176 130.641 17.5165C130.641 23.7154 125.714 28.12 118.765 28.12C111.858 28.12 106.889 23.7154 106.889 17.5165ZM122.084 17.5165C122.084 14.8641 120.626 13.5199 118.759 13.5199C116.893 13.5199 115.435 14.8641 115.435 17.5165C115.435 20.1689 116.893 21.5491 118.759 21.5491C120.632 21.5491 122.084 20.1689 122.084 17.5165Z" fill="var(--fill-0, #0B0B0B)"/>
<path id="Vector_10" d="M147.924 6.949V14.4141C147.18 14.3 146.652 14.264 146.058 14.264C143.519 14.264 141.725 15.4222 141.725 18.6687V27.742H133.288V7.32705H141.317V9.52937C142.811 7.80712 145.086 6.949 147.924 6.949Z" fill="var(--fill-0, #0B0B0B)"/>
<path id="Vector_11" d="M150.312 0.0420124H158.75V27.748H150.312V0.0420124Z" fill="var(--fill-0, #0B0B0B)"/>
<path id="Vector_12" d="M185.076 0.0420124V27.748H177.047V26.0677C175.816 27.4479 173.986 28.12 171.448 28.12C166.107 28.12 161.588 24.0874 161.588 17.5165C161.588 10.9456 166.107 6.949 171.448 6.949C173.686 6.949 175.408 7.50708 176.639 8.70125V0.0420124H185.076ZM176.789 17.5165C176.789 14.8641 175.33 13.5199 173.464 13.5199C171.598 13.5199 170.14 14.8641 170.14 17.5165C170.14 20.1689 171.598 21.5491 173.464 21.5491C175.33 21.5491 176.789 20.1689 176.789 17.5165Z" fill="var(--fill-0, #0B0B0B)"/>
<path id="Vector_13" d="M187.728 17.5165C187.728 11.3176 192.733 6.949 199.79 6.949C204.759 6.949 208.492 9.22932 209.836 12.9979L203.295 16.2083C202.437 14.3061 201.207 13.5199 199.748 13.5199C197.846 13.5199 196.274 14.8641 196.274 17.5165C196.274 20.2049 197.84 21.5491 199.748 21.5491C201.207 21.5491 202.437 20.763 203.295 18.8607L209.83 22.0712C208.486 25.8397 204.753 28.12 199.784 28.12C192.733 28.12 187.728 23.7514 187.728 17.5165Z" fill="var(--fill-0, #0B0B0B)"/>
<path id="Vector_14" d="M210.502 17.5165C210.502 11.3176 215.471 6.949 222.378 6.949C229.321 6.949 234.254 11.3176 234.254 17.5165C234.254 23.7154 229.327 28.12 222.378 28.12C215.471 28.12 210.502 23.7154 210.502 17.5165ZM225.703 17.5165C225.703 14.8641 224.244 13.5199 222.378 13.5199C220.512 13.5199 219.053 14.8641 219.053 17.5165C219.053 20.1689 220.512 21.5491 222.378 21.5491C224.244 21.5491 225.703 20.1689 225.703 17.5165Z" fill="var(--fill-0, #0B0B0B)"/>
<path id="Vector_15" d="M272.078 16.1003V27.748H263.64V17.5525C263.64 15.0142 262.704 14.042 261.36 14.042C259.866 14.042 258.708 15.0502 258.708 17.7745V27.742H250.27V17.5525C250.27 15.0142 249.412 14.042 247.99 14.042C246.496 14.042 245.338 15.0502 245.338 17.7745V27.742H236.9V7.32705H244.93V9.22932C246.46 7.69911 248.476 6.949 250.714 6.949C253.367 6.949 255.683 7.92114 257.099 10.0454C258.744 8.06516 261.132 6.949 263.935 6.949C268.567 6.949 272.078 9.67939 272.078 16.1003Z" fill="var(--fill-0, #0B0B0B)"/>
</g>
<path id="Vector_16" d="M46.1297 18.6447L27.4907 5.67467e-06L19.6415 7.85512L28.805 17.0184H13.1004V28.12H42.2051C44.4555 28.12 46.4718 26.7758 47.3359 24.6935C48.2001 22.6112 47.726 20.2349 46.1297 18.6447Z" fill="var(--fill-0, #2F80ED)"/>
<path id="Vector_17" d="M24.5094 63.2513L3.92932 42.918C2.33808 41.3458 1.87434 38.9867 2.75358 36.9106C3.63282 34.8344 5.66877 33.4853 7.9356 33.476L34.4634 33.3182L34.3961 44.352L21.3499 44.4297L32.4547 55.4013L24.5094 63.2513Z" fill="var(--fill-0, #FF8C42)"/>
</g>
</svg>
