<svg preserveAspectRatio="none" width="100%" height="100%" overflow="visible" style="display: block;" viewBox="0 0 173.94 39.9173" fill="none" xmlns="http://www.w3.org/2000/svg">
<g id="logo">
<g id="Group">
<path id="Vector" d="M44.9272 29.8799V34.1767H50.5774V35.1754H44.9272V39.9134H43.7717V28.8812H51.2615V29.8799H44.9272Z" fill="var(--fill-0, #0B0B0B)"/>
<path id="Vector_2" d="M67.373 28.8812H68.5209V39.9135H67.373V28.8812Z" fill="var(--fill-0, #0B0B0B)"/>
<path id="Vector_3" d="M92.9189 28.8812V39.9135H91.972L84.9846 30.9599V39.9135H83.8368V28.8812H84.7836L91.7865 37.8348V28.8812H92.9189Z" fill="var(--fill-0, #0B0B0B)"/>
<path id="Vector_4" d="M111.825 36.9677H105.769L104.466 39.9135H103.272L108.238 28.8812H109.371L114.337 39.9135H113.127L111.825 36.9677ZM111.407 35.9806L108.799 30.1354L106.19 35.9806H111.407Z" fill="var(--fill-0, #0B0B0B)"/>
<path id="Vector_5" d="M133.777 28.8812V39.9135H132.83L125.842 30.9599V39.9135H124.695V28.8812H125.642L132.644 37.8348V28.8812H133.777Z" fill="var(--fill-0, #0B0B0B)"/>
<path id="Vector_6" d="M144.83 34.3974C144.83 31.2193 147.253 28.8812 150.527 28.8812C152.111 28.8812 153.537 29.4077 154.5 30.4606L153.769 31.1883C152.884 30.2903 151.798 29.9032 150.554 29.9032C147.93 29.9032 145.959 31.8232 145.959 34.3974C145.959 36.9715 147.93 38.8915 150.554 38.8915C151.794 38.8915 152.884 38.5044 153.769 37.5909L154.5 38.3186C153.537 39.3715 152.107 39.9135 150.511 39.9135C147.253 39.9135 144.83 37.5754 144.83 34.3974Z" fill="var(--fill-0, #0B0B0B)"/>
<path id="Vector_7" d="M173.939 38.907V39.9173H166.252V28.8812H173.704V29.8916H167.4V33.8167H173.02V34.8115H167.4V38.907H173.939Z" fill="var(--fill-0, #0B0B0B)"/>
</g>
<g id="Group_2">
<path id="Vector_8" d="M67.555 4.72605L62.9869 17.8989H57.6961L55.7019 11.806L53.6343 17.8989H48.3435L43.7715 4.72605H48.9193L51.1802 11.686L53.5377 4.72605H58.156L60.4401 11.7596L62.7976 4.72605H67.555Z" fill="var(--fill-0, #0B0B0B)"/>
<path id="Vector_9" d="M67.5551 11.299C67.5551 7.3003 70.7551 4.48225 75.2034 4.48225C79.6749 4.48225 82.8517 7.3003 82.8517 11.299C82.8517 15.2977 79.6788 18.139 75.2034 18.139C70.7551 18.139 67.5551 15.2977 67.5551 11.299ZM77.3406 11.299C77.3406 9.58803 76.4015 8.72094 75.1996 8.72094C73.9976 8.72094 73.0585 9.58803 73.0585 11.299C73.0585 13.01 73.9976 13.9003 75.1996 13.9003C76.4054 13.9003 77.3406 13.01 77.3406 11.299Z" fill="var(--fill-0, #0B0B0B)"/>
<path id="Vector_10" d="M93.9833 4.48225V9.29771C93.504 9.22416 93.1639 9.20093 92.7813 9.20093C91.1466 9.20093 89.991 9.94803 89.991 12.0422V17.8951H84.5572V4.72611H89.7282V6.14675C90.6905 5.03579 92.1552 4.48225 93.9833 4.48225Z" fill="var(--fill-0, #0B0B0B)"/>
<path id="Vector_11" d="M95.5204 0.0266916H100.954V17.8989H95.5204V0.0266916Z" fill="var(--fill-0, #0B0B0B)"/>
<path id="Vector_12" d="M117.908 0.0266916V17.8989H112.737V16.815C111.945 17.7053 110.766 18.1389 109.131 18.1389C105.691 18.1389 102.781 15.5376 102.781 11.2989C102.781 7.06021 105.691 4.48216 109.131 4.48216C110.573 4.48216 111.682 4.84215 112.474 5.61247V0.0266916H117.908ZM112.571 11.2989C112.571 9.58794 111.632 8.72085 110.43 8.72085C109.228 8.72085 108.289 9.58794 108.289 11.2989C108.289 13.0099 109.228 13.9002 110.43 13.9002C111.632 13.9002 112.571 13.0099 112.571 11.2989Z" fill="var(--fill-0, #0B0B0B)"/>
<path id="Vector_13" d="M119.617 11.299C119.617 7.3003 122.84 4.48225 127.385 4.48225C130.585 4.48225 132.989 5.95321 133.854 8.38416L129.642 10.4551C129.089 9.22803 128.297 8.72094 127.358 8.72094C126.133 8.72094 125.12 9.58803 125.12 11.299C125.12 13.0332 126.129 13.9003 127.358 13.9003C128.297 13.9003 129.089 13.3932 129.642 12.1661L133.851 14.237C132.985 16.668 130.581 18.139 127.381 18.139C122.84 18.139 119.617 15.3209 119.617 11.299Z" fill="var(--fill-0, #0B0B0B)"/>
<path id="Vector_14" d="M134.283 11.299C134.283 7.3003 137.483 4.48225 141.932 4.48225C146.403 4.48225 149.58 7.3003 149.58 11.299C149.58 15.2977 146.407 18.139 141.932 18.139C137.483 18.139 134.283 15.2977 134.283 11.299ZM144.073 11.299C144.073 9.58803 143.134 8.72094 141.932 8.72094C140.73 8.72094 139.791 9.58803 139.791 11.299C139.791 13.01 140.73 13.9003 141.932 13.9003C143.134 13.9003 144.073 13.01 144.073 11.299Z" fill="var(--fill-0, #0B0B0B)"/>
<path id="Vector_15" d="M173.94 10.3854V17.899H168.506V11.3222C168.506 9.6848 167.903 9.05771 167.038 9.05771C166.075 9.05771 165.329 9.70803 165.329 11.4654V17.8951H159.896V11.3222C159.896 9.6848 159.343 9.05771 158.427 9.05771C157.465 9.05771 156.719 9.70803 156.719 11.4654V17.8951H151.285V4.72611H156.456V5.95321C157.441 4.96611 158.74 4.48225 160.182 4.48225C161.89 4.48225 163.382 5.10934 164.294 6.47966C165.353 5.20224 166.891 4.48225 168.696 4.48225C171.679 4.48225 173.94 6.24353 173.94 10.3854Z" fill="var(--fill-0, #0B0B0B)"/>
</g>
<path id="Vector_16" d="M28.4249 12.027L16.4211 0L11.366 5.06707L17.2675 10.978H7.15349V18.1393H25.8974C27.3467 18.1393 28.6452 17.2722 29.2017 15.929C29.7582 14.5857 29.4529 13.0528 28.4249 12.027Z" fill="var(--fill-0, #0B0B0B)"/>
<path id="Vector_17" d="M22.3226 21.7198H3.57874C2.12947 21.7198 0.830921 22.5869 0.274401 23.9302C-0.282118 25.2734 0.0231946 26.8063 1.05121 27.8321L13.0589 39.8591L18.1139 34.7959L12.2087 28.8811H22.3226V21.7198Z" fill="var(--fill-0, #0B0B0B)"/>
</g>
</svg>
